<?xml version="1.0" encoding="UTF-8"?>
<!-- Generator: Adobe Illustrator 21.1.0, SVG Export Plug-In . SVG Version: 6.00 Build 0)  -->
<svg version="1.1" id="Calque_3" xmlns="http://www.w3.org/2000/svg" xmlns:xlink="http://www.w3.org/1999/xlink" x="0px" y="0px" viewBox="0 0 286.3 49.1" style="enable-background:new 0 0 286.3 49.1;" xml:space="preserve">
<style type="text/css">
	.st0{fill:#964632;}
	.st1{fill:#46645A;}
	.st2{fill:#64825A;}
</style>
<circle class="st0" cx="41.8" cy="6.5" r="3.7"/>
<g>
	<path class="st1" d="M24.4,7c0.9,1.5,2.2,3.3,3.9,4.5l0.1,0c0.3,0.2,6.3,4.1,6.3,11.5c0,0.2,0,0.4,0,0.6c0.7,0.9,1.8,1.6,2.6,2.1   c0.2-0.9,0.3-1.8,0.3-2.8c0-8.8-7-13.5-7.7-14c-2.5-1.8-4.2-5.7-4.2-5.8L24.4,0l-1.3,3.3c0,0-1.5,3.6-3.9,5.5L8,17.9l4.7,0L0.9,28   l9.4,0l-9.7,9.7l3,0.4c9.3,1.2,14.1,1.4,16.6,1.1v8.2c0,0.8,0.7,1.5,1.5,1.5c0.8,0,1.5-0.7,1.5-1.5V24.2l-2.7,12   c-1.8,0.3-7.7-0.1-13.5-0.7l10.5-10.4l-8.6,0L20.6,15l-4.4,0l4.8-3.9C22.5,9.9,23.6,8.3,24.4,7z"/>
	<path class="st1" d="M35.4,29.9c-0.9-0.5-1.6-1-2.3-1.6c-2.5,4-6.9,6.1-6.9,6.1l-0.8,0.4v12.5c0,0.8,0.6,1.5,1.5,1.5   c0.8,0,1.5-0.7,1.5-1.5V36.7c1.6-0.9,5.1-3.1,7.3-6.7C35.5,30,35.5,29.9,35.4,29.9z"/>
</g>
<g>
	<path class="st2" d="M75.3,12.6c0-0.1,0-0.2,0-0.3c0-3.7-3-6.7-6.7-6.7c-0.2,0-0.3,0-0.5,0c-1-3.2-4.1-5.5-7.6-5.5   c-4.4,0-8,3.6-8,8c0,0.5,0.1,1.1,0.2,1.6c-2,1.6-6.8,6-6.8,13.3c0,1,0.1,1.9,0.3,2.8c0.8-0.5,1.9-1.3,2.6-2.1c0-0.2,0-0.4,0-0.6   c0-7.5,6.1-11.4,6.3-11.5l1-0.6l-0.4-1.1c-0.2-0.5-0.3-1.1-0.3-1.7c0-2.8,2.3-5.1,5.1-5.1c2.6,0,4.8,1.9,5,4.5l0.2,1.8l1.7-0.6   c0.4-0.1,0.8-0.2,1.2-0.2c2.1,0,3.8,1.7,3.8,3.8c0,0.3,0,0.5-0.1,0.8l-0.2,1.1l1,0.5c3.3,1.6,5.4,4.9,5.4,8.6c0,4.2-2.9,8-6.9,9.2   l-1,0.3l-0.1,1c-0.2,1.9-1.8,3.4-3.7,3.4c-1.6,0-3.1-1.1-3.5-2.6l-2.8-9.5v22.5c0,0.8,0.7,1.5,1.5,1.5c0.8,0,1.5-0.7,1.5-1.5V39   c1,0.6,2.2,1,3.5,1c3.1,0,5.7-2.1,6.4-5c4.8-1.8,8.2-6.4,8.2-11.7C81.4,18.9,79,14.8,75.3,12.6z"/>
	<path class="st2" d="M57.3,34.5c-0.1,0-4.5-2.2-6.9-6.1c-0.7,0.5-1.4,1.1-2.3,1.6c0,0-0.1,0-0.1,0.1c2.2,3.6,5.7,5.8,7.3,6.7v10.7   c0,0.8,0.7,1.5,1.5,1.5c0.8,0,1.5-0.7,1.5-1.5l0-12.5L57.3,34.5z"/>
</g>
<g>
	<path d="M99,9.8c0.6,0,1,0.5,1,1c0,0.6-0.4,1-1,1c-6.1,0-7.7,0-7.7,0c0,0.7,0,3.5,0,6.6h7.2c0.4,0,0.9,0.5,0.9,1c0,0.6-0.5,1-1,1   h-7c0,0,0,4.7,0,9.4c0,0.6-0.4,1-1,1c-0.6,0-1-0.5-1-1V10.8c0-0.6,0.5-1,1-1H99z"/>
	<path d="M101.6,26.2v-5.4c0-1.4,0.6-2.7,1.7-3.6c1-0.8,2.3-1.3,3.7-1.3c1.4,0,2.8,0.4,3.8,1.3c1.1,0.9,1.7,2.2,1.7,3.6v5.4   c0,1.5-0.6,2.7-1.7,3.6c-1,0.8-2.3,1.2-3.7,1.2c-1.5,0-2.8-0.4-3.7-1.2C102.2,28.9,101.6,27.7,101.6,26.2z M103.6,26.2   c0,2,1.7,2.7,3.3,2.7c1.6,0,3.3-0.7,3.3-2.7v-3.5c-1.4,0-2.7-0.4-3.6-1.2c-1-0.8-1.5-1.8-1.7-3.1c-0.8,0.4-1.4,1.2-1.4,2.4   L103.6,26.2L103.6,26.2z M107.1,18c0,1.9,1.7,2.6,3.2,2.7C110.2,18.8,108.7,18,107.1,18z"/>
	<path d="M121,17c0,0.6-0.4,1-1,1c-2,0-2.7,1.7-2.7,3.3v8.6c0,0.6-0.4,1-1,1c-0.6,0-1-0.5-1-1v-13c0-0.6,0.5-1,1-1   c0.5,0,0.9,0.4,1,0.8c0.7-0.6,1.7-0.8,2.7-0.8C120.6,15.9,121,16.4,121,17z"/>
	<path d="M133.2,27c-0.4,2.4-2.5,3.9-5.3,3.9c-1.5,0-2.8-0.4-3.7-1.2c-1.1-0.9-1.7-2.1-1.7-3.6c0-1.8,0-3.6,0-5.4   c0-1.4,0.6-2.7,1.7-3.6c1-0.8,2.3-1.3,3.7-1.3c1.4,0,2.8,0.4,3.7,1.3c1.1,0.9,1.7,2.2,1.7,3.6v1.8c0,0.5-0.3,0.9-0.8,1   c-6.5,1.2-7.9,1.5-7.9,1.5s0,0.5,0,1.2c0,2,1.7,2.7,3.3,2.7c1.4,0,3-0.6,3.3-2.2c0.1-0.6,0.6-0.9,1.2-0.8   C132.9,25.9,133.3,26.4,133.2,27z M124.5,22.9c1.6-0.3,5.5-1,6.7-1.3c0,0,0-0.4,0-0.9c0-1.9-1.7-2.8-3.3-2.8s-3.3,0.9-3.3,2.8   C124.5,21.9,124.5,22.9,124.5,22.9z"/>
	<path d="M143,26.5c0-0.6-0.3-1.8-3.1-2.3c-1-0.2-2.1-0.5-3-1.1c-1-0.7-1.5-1.7-1.5-2.9c0-1.3,0.5-2.4,1.5-3.2   c0.8-0.7,2-1.1,3.3-1.1c2.2,0,3.9,1.1,4.5,2.9c0.2,0.5-0.1,1.1-0.6,1.3c-0.5,0.2-1.1-0.1-1.3-0.6c-0.3-0.9-1.3-1.5-2.6-1.5   c-1.3,0-2.7,0.6-2.7,2.2c0,0.9,0.4,1.5,2.8,1.9c1.6,0.3,2.8,0.8,3.6,1.6c0.8,0.7,1.2,1.8,1.2,2.8c0,1.4-0.6,2.6-1.5,3.3   c-0.9,0.7-2,1.1-3.4,1.1c-2.6,0-4.5-1.4-4.9-3.6c-0.1-0.6,0.3-1.1,0.8-1.2c0.6-0.1,1.1,0.3,1.2,0.9c0.3,1.7,2.3,1.9,2.9,1.9   C141.5,28.9,143,28.2,143,26.5z"/>
	<path d="M148.8,26.2v-8.1h-1.7c-0.6,0-1-0.4-1-1c0-0.6,0.5-1.1,1-1.1h1.7v-5.4c0-0.6,0.5-1,1-1c0.6,0,1,0.5,1,1v5.4h1.7   c0.6,0,1,0.5,1,1.1c0,0.6-0.4,1-1,1h-1.7v8.1c0,1.9,1.7,2.7,3.3,2.7c0.6,0,1.1,0.4,1.1,1c0,0.6-0.5,1-1.1,1c-1.4,0-2.7-0.4-3.7-1.2   C149.4,28.9,148.8,27.7,148.8,26.2z"/>
	<path d="M158.9,10.6v1.4c0,0.6-0.5,1-1,1c-0.6,0-1.1-0.4-1.1-1v-1.4c0-0.6,0.5-1,1.1-1C158.4,9.6,158.9,10.1,158.9,10.6z    M158.9,16.9v13c0,0.6-0.5,1-1,1c-0.6,0-1.1-0.5-1.1-1v-13c0-0.6,0.5-1,1.1-1C158.4,15.9,158.9,16.4,158.9,16.9z"/>
	<path d="M172.7,27c-0.4,2.4-2.5,3.9-5.3,3.9c-1.5,0-2.8-0.4-3.7-1.2c-1.1-0.9-1.7-2.1-1.7-3.6c0-1.8,0-3.6,0-5.4   c0-1.4,0.6-2.7,1.7-3.6c1-0.8,2.3-1.3,3.7-1.3c1.4,0,2.8,0.4,3.7,1.3c1.1,0.9,1.7,2.2,1.7,3.6v1.8c0,0.5-0.3,0.9-0.8,1   c-6.5,1.2-7.9,1.5-7.9,1.5s0,0.5,0,1.2c0,2,1.7,2.7,3.3,2.7c1.4,0,3-0.6,3.3-2.2c0.1-0.6,0.6-0.9,1.2-0.8   C172.4,25.9,172.8,26.4,172.7,27z M164.1,22.9c1.6-0.3,5.5-1,6.7-1.3c0,0,0-0.4,0-0.9c0-1.9-1.7-2.8-3.3-2.8   c-1.7,0-3.3,0.9-3.3,2.8C164.1,21.9,164.1,22.9,164.1,22.9z"/>
	<path d="M181.2,17c0,0.6-0.4,1-1,1c-2,0-2.7,1.7-2.7,3.3v8.6c0,0.6-0.4,1-1,1c-0.6,0-1-0.5-1-1v-13c0-0.6,0.5-1,1-1   c0.5,0,0.9,0.4,1,0.8c0.7-0.6,1.7-0.8,2.7-0.8C180.7,15.9,181.2,16.4,181.2,17z"/>
	<path d="M190,26.5c0-0.6-0.3-1.8-3.1-2.3c-1-0.2-2.1-0.5-3-1.1c-1-0.7-1.5-1.7-1.5-2.9c0-1.3,0.5-2.4,1.5-3.2   c0.8-0.7,2-1.1,3.3-1.1c2.2,0,3.9,1.1,4.5,2.9c0.2,0.5-0.1,1.1-0.6,1.3c-0.5,0.2-1.1-0.1-1.3-0.6c-0.3-0.9-1.3-1.5-2.6-1.5   c-1.3,0-2.7,0.6-2.7,2.2c0,0.9,0.4,1.5,2.8,1.9c1.6,0.3,2.8,0.8,3.6,1.6c0.8,0.7,1.2,1.8,1.2,2.8c0,1.4-0.6,2.6-1.5,3.3   c-0.9,0.7-2.1,1.1-3.4,1.1c-2.6,0-4.5-1.4-4.9-3.6c-0.1-0.6,0.3-1.1,0.8-1.2c0.6-0.1,1.1,0.3,1.2,0.9c0.3,1.7,2.3,1.9,2.9,1.9   C188.5,28.9,190,28.2,190,26.5z"/>
	<path d="M212.7,29.9c0,0.6-0.5,1-1,1c-1.3,0-2.4-0.6-3-1.5c-0.1,0.1-0.3,0.2-0.4,0.4c-0.9,0.8-2.2,1.2-3.7,1.2   c-1.5,0-2.8-0.4-3.7-1.2c-1.1-0.9-1.7-2.1-1.7-3.6v-5.4c0-1.4,0.6-2.7,1.7-3.6c1-0.8,2.3-1.3,3.8-1.3c1.2,0,2.4,0.3,3.3,0.9v-6.2   c0-0.6,0.4-1,1-1c0.6,0,1,0.5,1,1v16c0,0.5,0.1,2.3,1.8,2.3C212.2,28.9,212.7,29.3,212.7,29.9z M207.8,26.2v-5.4   c0-1.9-1.7-2.8-3.3-2.8s-3.3,0.9-3.3,2.8v5.4c0,2,1.7,2.7,3.3,2.7C206.1,28.9,207.8,28.2,207.8,26.2z"/>
	<path d="M213.9,26.2v-9.3c0-0.6,0.5-1,1-1c0.6,0,1,0.4,1,1v9.3c0,2,1.7,2.7,3.3,2.7c1.6,0,3.3-0.7,3.3-2.7v-9.3c0-0.6,0.5-1,1.1-1   c0.6,0,1,0.4,1,1v9.3c0,1.5-0.6,2.7-1.7,3.6c-1,0.8-2.3,1.2-3.7,1.2c-1.5,0-2.8-0.4-3.7-1.2C214.4,28.9,213.9,27.7,213.9,26.2z"/>
	<path class="st0" d="M240.1,9.6c1.7,0,3.2,0.5,4.3,1.3c1.3,1,1.9,2.5,1.9,4.1c0,0.7-0.6,1.3-1.3,1.3s-1.3-0.6-1.3-1.3   c0-2.2-1.9-2.9-3.7-2.9c-1.8,0-3.7,0.8-3.7,2.9v10.3c0,2.2,1.9,2.9,3.7,2.9c1.8,0,3.7-0.8,3.7-2.9c0-1.9,0-3.4,0-3.4s-1.4,0-3.7,0   c-0.7,0-1.3-0.6-1.3-1.3s0.6-1.3,1.3-1.3h5c0.7,0,1.3,0.6,1.3,1.3v4.7c0,1.7-0.7,3.2-1.9,4.1c-1.1,0.9-2.6,1.3-4.3,1.3   c-1.7,0-3.2-0.5-4.3-1.3c-1.3-1-1.9-2.5-1.9-4.1V15.1c0-1.7,0.7-3.2,1.9-4.1C236.9,10.1,238.4,9.6,240.1,9.6z"/>
	<path class="st0" d="M263.4,29.6c0,0.7-0.6,1.3-1.3,1.3c-1.3,0-2.4-0.5-3.2-1.4c-1.1,0.9-2.4,1.4-4,1.4c-1.5,0-2.8-0.4-3.8-1.2   c-1.1-0.9-1.7-2.2-1.7-3.7v-5.3c0-1.5,0.6-2.8,1.7-3.7c1-0.8,2.3-1.3,3.8-1.3c1.5,0,2.8,0.5,3.8,1.3c1.1,0.9,1.7,2.2,1.7,3.7v5.3   c0,0.5,0.1,2.3,1.7,2.3C262.8,28.4,263.4,28.9,263.4,29.6z M257.8,26.1v-5.3c0-1.8-1.6-2.4-2.9-2.4c-1.4,0-2.9,0.6-2.9,2.4v5.3   c0,2.1,2.2,2.3,2.9,2.3C255.5,28.4,257.8,28.2,257.8,26.1z"/>
	<path class="st0" d="M270.9,17.1c0,0.7-0.6,1.3-1.3,1.3c-2,0-2.3,2.1-2.3,2.9v8.4c0,0.7-0.6,1.3-1.3,1.3c-0.7,0-1.3-0.6-1.3-1.3   c0-4.1,0-8.5,0-12.6c0-0.7,0.6-1.3,1.3-1.3c0.5,0,0.9,0.3,1.1,0.7c0.7-0.4,1.5-0.7,2.5-0.7C270.3,15.8,270.9,16.4,270.9,17.1z"/>
	<path class="st0" d="M286.3,29.6c0,0.7-0.6,1.3-1.3,1.3c-1.3,0-2.4-0.5-3.2-1.4c-0.1,0.1-0.2,0.2-0.3,0.2c-1,0.8-2.3,1.2-3.8,1.2   c-1.5,0-2.8-0.4-3.8-1.2c-1.1-0.9-1.7-2.2-1.7-3.7v-5.3c0-1.5,0.6-2.8,1.7-3.7c1-0.8,2.3-1.3,3.8-1.3c1.1,0,2.1,0.2,2.9,0.7v-5.6   c0-0.7,0.6-1.3,1.3-1.3s1.3,0.6,1.3,1.3v15.3c0,0.5,0.1,2.2,1.7,2.2C285.7,28.4,286.3,29,286.3,29.6z M280.8,26.1v-5.3   c0-1.8-1.6-2.4-2.9-2.4c-1.4,0-2.9,0.7-2.9,2.4v5.3c0,2.2,2.3,2.3,2.9,2.3C278.5,28.4,280.8,28.2,280.8,26.1z"/>
</g>
<g>
	<path d="M93.9,46.3c0,0.3-0.3,0.6-0.6,0.6h-4.1c-0.3,0-0.6-0.3-0.6-0.6V38c0-0.3,0.3-0.6,0.6-0.6h4c0.3,0,0.6,0.3,0.6,0.6   c0,0.3-0.3,0.6-0.6,0.6c-2.5,0-3.4,0-3.4,0c0,0.4,0,1.4,0,2.6H93c0.3,0,0.6,0.3,0.6,0.6c0,0.3-0.3,0.6-0.6,0.6h-3.1   c0,1.5,0,2.9,0,3.3c0,0,0.9,0,3.5,0C93.7,45.7,93.9,46,93.9,46.3z"/>
	<path d="M97,37.7c2.1,4,3.4,6.3,3.4,6.3s0-2.5,0-6.1c0-0.3,0.3-0.6,0.6-0.6c0.3,0,0.6,0.3,0.6,0.6l0,8.4c0,0.3-0.2,0.5-0.4,0.6   c-0.2,0.1-0.5-0.1-0.7-0.3c-2.1-4-3.4-6.4-3.4-6.4s0,2.5,0,6.1c0,0.3-0.3,0.6-0.6,0.6c-0.3,0-0.6-0.3-0.6-0.6V38   c0-0.3,0.2-0.5,0.4-0.6C96.6,37.3,96.8,37.4,97,37.7z"/>
	<path d="M106.4,37.4c0.6,0,1.2,0.2,1.7,0.4c0.5,0.3,0.9,0.8,1,1.4c0.1,0.3-0.1,0.6-0.4,0.7c-0.3,0.1-0.6-0.1-0.7-0.4   c-0.2-0.9-1.1-1-1.5-1c-0.5,0-1.4,0.2-1.4,1.2c0,0.8,0.6,1.1,1.9,1.7c0.5,0.2,1.1,0.5,1.5,0.9c0.6,0.5,0.9,1.2,0.9,2.1   c0,0.7-0.3,1.4-0.9,1.9c-0.5,0.4-1.2,0.7-2,0.7c-1.5,0-2.6-0.9-2.8-2.1c0-0.3,0.2-0.6,0.5-0.6c0.3-0.1,0.6,0.2,0.7,0.5   c0.1,1,1.3,1.1,1.6,1.1c0.8,0,1.7-0.4,1.7-1.4c0-1-0.6-1.4-1.7-1.9c-1.3-0.6-2.6-1.2-2.6-2.8c0-0.7,0.3-1.3,0.8-1.8   C105.1,37.6,105.7,37.4,106.4,37.4z"/>
	<path d="M116.5,46.3c0,0.3-0.3,0.6-0.6,0.6h-4.1c-0.3,0-0.6-0.3-0.6-0.6V38c0-0.3,0.3-0.6,0.6-0.6h4c0.3,0,0.6,0.3,0.6,0.6   c0,0.3-0.3,0.6-0.6,0.6c-2.5,0-3.4,0-3.4,0c0,0.4,0,1.4,0,2.6h3.1c0.3,0,0.6,0.3,0.6,0.6c0,0.3-0.3,0.6-0.6,0.6h-3.1   c0,1.5,0,2.9,0,3.3c0,0,0.9,0,3.5,0C116.3,45.7,116.5,46,116.5,46.3z"/>
	<path d="M124.6,37.4c0.3,0,0.5,0.3,0.5,0.6v8.4c0,0.3-0.2,0.6-0.6,0.6s-0.6-0.3-0.6-0.6c0-2.9,0-5.5,0-5.5s-0.8,1.9-1.7,4.1   c-0.1,0.2-0.3,0.4-0.5,0.4c-0.2,0-0.4-0.1-0.5-0.4c-0.9-2.1-1.7-4.1-1.7-4.1s0,2.6,0,5.5c0,0.3-0.3,0.6-0.6,0.6s-0.6-0.3-0.6-0.6   V38c0-0.3,0.2-0.5,0.5-0.6c0.3-0.1,0.5,0.1,0.6,0.3c1.6,3.8,2.3,5.5,2.3,5.5s0.7-1.7,2.3-5.5C124.1,37.5,124.4,37.3,124.6,37.4z"/>
	<path d="M133.1,44.1c0,0.8-0.2,1.4-0.6,1.9c-0.4,0.6-1.1,0.9-1.9,0.9h-2.5c-0.3,0-0.6-0.3-0.6-0.6V38c0-0.3,0.3-0.6,0.6-0.6h2.2   c0.7,0,1.3,0.3,1.7,0.8c0.4,0.4,0.6,1.1,0.6,1.7c0,0.7-0.2,1.3-0.6,1.7c0,0,0,0,0,0c0.2,0.1,0.4,0.3,0.5,0.5   C132.9,42.6,133.1,43.3,133.1,44.1z M128.7,38.6c0,0.4,0,1.4,0,2.6h1.7c0.8,0,1.1-0.7,1.1-1.3c0-0.6-0.3-1.3-1.1-1.3   C129.4,38.6,128.7,38.6,128.7,38.6z M132,44.1c0-0.8-0.3-1.7-1.3-1.7c0,0,0,0-1.9,0c0,1.5,0,2.9,0,3.3c0,0,0.7,0,1.9,0   C131.6,45.7,132,44.9,132,44.1z"/>
	<path d="M135.3,38c0-0.3,0.3-0.6,0.6-0.6s0.6,0.3,0.6,0.6c0,6.7,0,7.8,0,7.8s0.8,0,3.2,0c0.3,0,0.6,0.3,0.6,0.6   c0,0.3-0.3,0.6-0.6,0.6h-3.8c-0.3,0-0.6-0.3-0.6-0.6V38z"/>
	<path d="M147.2,46.3c0,0.3-0.3,0.6-0.6,0.6h-4.1c-0.3,0-0.6-0.3-0.6-0.6V38c0-0.3,0.3-0.6,0.6-0.6h4c0.3,0,0.6,0.3,0.6,0.6   c0,0.3-0.3,0.6-0.6,0.6c-2.5,0-3.4,0-3.4,0c0,0.4,0,1.4,0,2.6h3.1c0.3,0,0.6,0.3,0.6,0.6c0,0.3-0.3,0.6-0.6,0.6h-3.1   c0,1.5,0,2.9,0,3.3c0,0,0.9,0,3.5,0C146.9,45.7,147.2,46,147.2,46.3z"/>
	<path d="M158.1,40.2c0,0.7-0.2,1.4-0.6,1.9c-0.4,0.5-1.1,0.8-1.8,0.8c0,0,0,0-1.7,0c0,0,0,1.8,0,3.4c0,0.3-0.3,0.6-0.6,0.6   c-0.3,0-0.6-0.3-0.6-0.6V38c0-0.3,0.3-0.6,0.6-0.6c2.2,0,2.2,0,2.2,0c0.7,0,1.4,0.3,1.8,0.9C157.9,38.8,158.1,39.5,158.1,40.2z    M155.7,41.8c0.9,0,1.2-0.8,1.2-1.6c0-0.8-0.3-1.6-1.3-1.6c-1,0-1.7,0-1.7,0v3.2C154,41.8,155.7,41.8,155.7,41.8z"/>
	<path d="M162.4,37.4c0.8,0,1.4,0.2,1.9,0.6c0.6,0.4,0.9,1.1,0.9,1.9v4.7c0,0.8-0.3,1.4-0.9,1.9c-0.5,0.4-1.2,0.6-1.9,0.6   c-0.8,0-1.4-0.2-1.9-0.6c-0.6-0.4-0.9-1.1-0.9-1.9v-4.7c0-0.8,0.3-1.4,0.9-1.9C160.9,37.6,161.6,37.4,162.4,37.4z M160.7,44.5   c0,1,0.9,1.3,1.7,1.3c0.8,0,1.7-0.3,1.7-1.3v-4.7c0-1-0.9-1.3-1.7-1.3c-0.8,0-1.7,0.3-1.7,1.3V44.5z"/>
	<path d="M171.9,38c0-0.3,0.3-0.6,0.6-0.6s0.6,0.3,0.6,0.6v6.5c0,0.8-0.3,1.4-0.9,1.9c-0.5,0.4-1.2,0.6-1.9,0.6s-1.4-0.2-1.9-0.6   c-0.6-0.4-0.9-1.1-0.9-1.9V38c0-0.3,0.3-0.6,0.6-0.6s0.6,0.3,0.6,0.6v6.5c0,1,0.9,1.3,1.7,1.3c0.8,0,1.7-0.3,1.7-1.3L171.9,38   L171.9,38z"/>
	<path d="M180.9,46.1c0.1,0.3,0,0.6-0.3,0.8c-0.3,0.1-0.6,0-0.8-0.3c-1.4-3-1.8-3.7-1.8-3.7h-1.3c0,0,0,1.8,0,3.4   c0,0.3-0.3,0.6-0.6,0.6c-0.3,0-0.6-0.3-0.6-0.6V38c0-0.3,0.3-0.6,0.6-0.6c2.2,0,2.2,0,2.2,0c0.7,0,1.4,0.3,1.8,0.9   c0.4,0.5,0.6,1.1,0.6,1.9c0,0.7-0.2,1.4-0.6,1.9c-0.3,0.3-0.6,0.6-1,0.7L180.9,46.1z M176.8,41.8c1.7,0,1.7,0,1.7,0   c0.9,0,1.3-0.8,1.3-1.6c0-0.8-0.3-1.6-1.3-1.6c-1,0-1.7,0-1.7,0V41.8z"/>
	<path d="M187.8,37.7c2.1,4,3.4,6.3,3.4,6.3s0-2.5,0-6.1c0-0.3,0.3-0.6,0.6-0.6c0.3,0,0.6,0.3,0.6,0.6l0,8.4c0,0.3-0.2,0.5-0.4,0.6   c-0.2,0.1-0.5-0.1-0.7-0.3c-2.1-4-3.4-6.4-3.4-6.4s0,2.5,0,6.1c0,0.3-0.3,0.6-0.6,0.6c-0.3,0-0.6-0.3-0.6-0.6V38   c0-0.3,0.2-0.5,0.4-0.6C187.4,37.3,187.7,37.4,187.8,37.7z"/>
	<path d="M197.5,37.4c0.8,0,1.4,0.2,1.9,0.6c0.6,0.4,0.9,1.1,0.9,1.9v4.7c0,0.8-0.3,1.4-0.9,1.9c-0.5,0.4-1.2,0.6-1.9,0.6   c-0.8,0-1.4-0.2-1.9-0.6c-0.6-0.4-0.9-1.1-0.9-1.9v-4.7c0-0.8,0.3-1.4,0.9-1.9C196,37.6,196.7,37.4,197.5,37.4z M195.8,44.5   c0,1,0.9,1.3,1.7,1.3c0.8,0,1.7-0.3,1.7-1.3v-4.7c0-1-0.9-1.3-1.7-1.3c-0.8,0-1.7,0.3-1.7,1.3V44.5z"/>
	<path d="M204.8,37.4c0.6,0,1.2,0.2,1.7,0.4c0.5,0.3,0.9,0.8,1,1.4c0.1,0.3-0.1,0.6-0.4,0.7c-0.3,0.1-0.6-0.1-0.7-0.4   c-0.2-0.9-1.1-1-1.5-1c-0.5,0-1.4,0.2-1.4,1.2c0,0.8,0.6,1.1,1.9,1.7c0.5,0.2,1.1,0.5,1.5,0.9c0.6,0.5,0.9,1.2,0.9,2.1   c0,0.7-0.3,1.4-0.9,1.9c-0.5,0.4-1.2,0.7-2,0.7c-1.5,0-2.6-0.9-2.8-2.1c0-0.3,0.2-0.6,0.5-0.6c0.3-0.1,0.6,0.2,0.7,0.5   c0.1,1,1.3,1.1,1.6,1.1c0.8,0,1.7-0.4,1.7-1.4c0-1-0.6-1.4-1.7-1.9c-1.3-0.6-2.6-1.2-2.6-2.8c0-0.7,0.3-1.3,0.8-1.8   C203.5,37.6,204.1,37.4,204.8,37.4z"/>
	<path d="M218.8,46.2c0.1,0.3-0.1,0.6-0.4,0.7c-0.3,0.1-0.6-0.1-0.7-0.4c-0.2-0.8-0.6-2.1-0.6-2.1h-2.7c0,0-0.4,1.3-0.6,2.1   c-0.1,0.3-0.4,0.5-0.7,0.4c-0.3-0.1-0.5-0.4-0.4-0.7l2.5-8.4c0.1-0.2,0.3-0.4,0.5-0.4c0.3,0,0.5,0.2,0.6,0.4L218.8,46.2z    M216.8,43.3c-0.3-1.2-0.7-2.4-1-3.3c-0.3,0.9-0.6,2.2-1,3.3H216.8z"/>
	<path d="M225.9,46.1c0.1,0.3,0,0.6-0.3,0.8c-0.3,0.1-0.6,0-0.8-0.3c-1.4-3-1.8-3.7-1.8-3.7h-1.3c0,0,0,1.8,0,3.4   c0,0.3-0.3,0.6-0.6,0.6c-0.3,0-0.6-0.3-0.6-0.6V38c0-0.3,0.3-0.6,0.6-0.6c2.2,0,2.2,0,2.2,0c0.7,0,1.4,0.3,1.8,0.9   c0.4,0.5,0.6,1.1,0.6,1.9c0,0.7-0.2,1.4-0.6,1.9c-0.3,0.3-0.6,0.6-1,0.7L225.9,46.1z M221.8,41.8c1.7,0,1.7,0,1.7,0   c0.9,0,1.3-0.8,1.3-1.6c0-0.8-0.3-1.6-1.3-1.6c-1,0-1.7,0-1.7,0V41.8z"/>
	<path d="M233.6,44.1c0,0.8-0.2,1.4-0.6,1.9c-0.4,0.6-1.1,0.9-1.9,0.9h-2.5c-0.3,0-0.6-0.3-0.6-0.6V38c0-0.3,0.3-0.6,0.6-0.6h2.2   c0.7,0,1.3,0.3,1.7,0.8c0.4,0.4,0.6,1.1,0.6,1.7c0,0.7-0.2,1.3-0.6,1.7c0,0,0,0,0,0c0.2,0.1,0.4,0.3,0.5,0.5   C233.4,42.6,233.6,43.3,233.6,44.1z M229.2,38.6c0,0.4,0,1.4,0,2.6h1.7c0.8,0,1.1-0.7,1.1-1.3c0-0.6-0.3-1.3-1.1-1.3   C229.8,38.6,229.2,38.6,229.2,38.6z M232.4,44.1c0-0.8-0.3-1.7-1.3-1.7c0,0,0,0-1.9,0c0,1.5,0,2.9,0,3.3c0,0,0.7,0,1.9,0   C232.1,45.7,232.4,44.9,232.4,44.1z"/>
	<path d="M241,46.1c0.1,0.3,0,0.6-0.3,0.8c-0.3,0.1-0.6,0-0.8-0.3c-1.4-3-1.8-3.7-1.8-3.7h-1.3c0,0,0,1.8,0,3.4   c0,0.3-0.3,0.6-0.6,0.6c-0.3,0-0.6-0.3-0.6-0.6V38c0-0.3,0.3-0.6,0.6-0.6c2.2,0,2.2,0,2.2,0c0.7,0,1.4,0.3,1.8,0.9   c0.4,0.5,0.6,1.1,0.6,1.9c0,0.7-0.2,1.4-0.6,1.9c-0.3,0.3-0.6,0.6-1,0.7L241,46.1z M236.9,41.8c1.7,0,1.7,0,1.7,0   c0.9,0,1.3-0.8,1.3-1.6c0-0.8-0.3-1.6-1.3-1.6c-1,0-1.7,0-1.7,0V41.8z"/>
	<path d="M248.4,46.3c0,0.3-0.3,0.6-0.6,0.6h-4.1c-0.3,0-0.6-0.3-0.6-0.6V38c0-0.3,0.3-0.6,0.6-0.6h4c0.3,0,0.6,0.3,0.6,0.6   c0,0.3-0.3,0.6-0.6,0.6c-2.5,0-3.4,0-3.4,0c0,0.4,0,1.4,0,2.6h3.1c0.3,0,0.6,0.3,0.6,0.6c0,0.3-0.3,0.6-0.6,0.6h-3.1   c0,1.5,0,2.9,0,3.3c0,0,0.9,0,3.5,0C248.1,45.7,248.4,46,248.4,46.3z"/>
	<path d="M252.6,37.4c0.6,0,1.2,0.2,1.7,0.4c0.5,0.3,0.9,0.8,1,1.4c0.1,0.3-0.1,0.6-0.4,0.7c-0.3,0.1-0.6-0.1-0.7-0.4   c-0.2-0.9-1.1-1-1.5-1c-0.5,0-1.4,0.2-1.4,1.2c0,0.8,0.6,1.1,1.9,1.7c0.5,0.2,1.1,0.5,1.5,0.9c0.6,0.5,0.9,1.2,0.9,2.1   c0,0.7-0.3,1.4-0.9,1.9c-0.5,0.4-1.2,0.7-2,0.7c-1.5,0-2.6-0.9-2.8-2.1c0-0.3,0.2-0.6,0.5-0.6c0.3-0.1,0.6,0.2,0.7,0.5   c0.1,1,1.3,1.1,1.6,1.1c0.8,0,1.7-0.4,1.7-1.4c0-1-0.6-1.4-1.7-1.9c-1.3-0.6-2.6-1.2-2.6-2.8c0-0.7,0.3-1.3,0.8-1.8   C251.2,37.6,251.9,37.4,252.6,37.4z"/>
</g>
<g>
	<path class="st0" d="M37.1,26.9c-2-1.2-4.4-3-4.4-5.4c0-0.6,0.2-1.2,0.5-1.8c-0.3-1-0.6-1.9-1.1-2.6c-1.1,1.3-1.8,2.7-1.8,4.4   c0,2.8,1.9,5.3,5.6,7.4c0.2,0.1,0.4,0.2,0.6,0.2c0.4,0,0.8-0.2,1-0.6C37.9,28,37.7,27.2,37.1,26.9z"/>
	<path class="st0" d="M47.4,14c-2.6-1.5-5.1-2.2-5.4-2.3l-0.3-0.1l-0.3,0.1c-0.2,0.1-2.8,0.8-5.3,2.3c0.4,0.7,0.8,1.4,1.1,2.1   c0.5-0.3,1-0.5,1.4-0.8v30.7c0,1.4,1,2.6,2.3,3V30.5c0-0.5,0.4-0.8,0.8-0.8c0.5,0,0.8,0.4,0.8,0.8v18.6c1.3-0.4,2.3-1.6,2.3-3V15.4   c0.5,0.2,1,0.5,1.5,0.8C46.7,15.4,47,14.7,47.4,14z"/>
	<path class="st0" d="M51.4,17.1c-0.4,0.8-0.8,1.7-1.1,2.6c0.3,0.6,0.5,1.2,0.5,1.8c0,2.3-2.4,4.2-4.4,5.4c-0.6,0.3-0.8,1.1-0.4,1.6   c0.3,0.6,1.1,0.8,1.7,0.4c3.7-2.1,5.6-4.7,5.6-7.4C53.2,19.8,52.5,18.4,51.4,17.1z"/>
</g>
</svg>